<?xml version="1.0" encoding="UTF-8"?>
<svg width="45px" height="45px" viewBox="0 0 45 45" version="1.1" xmlns="http://www.w3.org/2000/svg" xmlns:xlink="http://www.w3.org/1999/xlink">
    <!-- Generator: Sketch 46.2 (44496) - http://www.bohemiancoding.com/sketch -->
    <title>Facebook_White</title>
    <desc>Created with Sketch.</desc>
    <defs></defs>
    <g id="Page-1" stroke="none" stroke-width="1" fill="none" fill-rule="evenodd">
        <g id="Desktop-HD" transform="translate(-60.000000, -2499.000000)" fill="#FFFFFF">
            <g id="Facebook" transform="translate(60.000000, 2499.000000)">
                <path d="M0,22.5 C0,10.0735925 10.0735925,0 22.5,0 C34.9264075,0 45,10.0735925 45,22.5 C45,34.9264075 34.9264075,45 22.5,45 C10.0735925,45 0,34.9264075 0,22.5 Z M24.0952079,34.9795094 L24.0952079,22.7383215 L27.4743111,22.7383215 L27.9221153,18.5199404 L24.0952079,18.5199404 L24.100949,16.4086 C24.100949,15.3083812 24.2054845,14.7188589 25.7857164,14.7188589 L27.8981941,14.7188589 L27.8981941,10.5 L24.5186125,10.5 C20.4591914,10.5 19.0303804,12.5463687 19.0303804,15.9877174 L19.0303804,18.5204181 L16.5,18.5204181 L16.5,22.7387992 L19.0303804,22.7387992 L19.0303804,34.9795094 L24.0952079,34.9795094 Z" id="Combined-Shape"></path>
            </g>
        </g>
    </g>
</svg>