<?xml version="1.0" encoding="UTF-8"?>
<svg width="40px" height="40px" viewBox="0 0 40 40" version="1.1" xmlns="http://www.w3.org/2000/svg" xmlns:xlink="http://www.w3.org/1999/xlink">
    <!-- Generator: Sketch 46.2 (44496) - http://www.bohemiancoding.com/sketch -->
    <title>Github logo</title>
    <desc>Created with Sketch.</desc>
    <defs></defs>
    <g id="Page-1" stroke="none" stroke-width="1" fill="none" fill-rule="evenodd">
        <g id="Desktop-HD" transform="translate(-1066.000000, -618.000000)" fill="#FFFFFF">
            <path d="M1085.99875,618 C1074.955,618 1066,627.180504 1066,638.507782 C1066,647.566529 1071.73,655.252621 1079.67875,657.964606 C1080.67875,658.15301 1081.04375,657.519871 1081.04375,656.976449 C1081.04375,656.48942 1081.02625,655.200073 1081.01625,653.489062 C1075.4525,654.728424 1074.27875,650.73991 1074.27875,650.73991 C1073.37,648.371409 1072.05875,647.740834 1072.05875,647.740834 C1070.2425,646.468149 1072.19625,646.493782 1072.19625,646.493782 C1074.2025,646.63861 1075.25875,648.607234 1075.25875,648.607234 C1077.04375,651.740883 1079.94,650.836034 1081.08,650.310555 C1081.26125,648.985322 1081.77875,648.081754 1082.35,647.569092 C1077.90875,647.051303 1073.24,645.29287 1073.24,637.435036 C1073.24,635.195982 1074.01875,633.365777 1075.29875,631.931604 C1075.0925,631.412533 1074.40625,629.32856 1075.49375,626.505071 C1075.49375,626.505071 1077.17375,625.953959 1080.99375,628.606987 C1082.59,628.151999 1084.3,627.925146 1086.00125,627.916175 C1087.7,627.925146 1089.41125,628.151999 1091.00875,628.606987 C1094.82625,625.953959 1096.5025,626.505071 1096.5025,626.505071 C1097.59375,629.32856 1096.9075,631.412533 1096.70125,631.931604 C1097.98375,633.365777 1098.7575,635.195982 1098.7575,637.435036 C1098.7575,645.312095 1094.08125,647.046176 1089.62625,647.553712 C1090.34375,648.18685 1090.98375,649.437747 1090.98375,651.35126 C1090.98375,654.092722 1090.95875,656.30358 1090.95875,656.976449 C1090.95875,657.524998 1091.31875,658.163263 1092.33375,657.962043 C1100.275,655.244931 1106,647.563965 1106,638.507782 C1106,627.180504 1097.045,618 1085.99875,618" id="Github-logo"></path>
        </g>
    </g>
</svg>