<?xml version="1.0" encoding="UTF-8"?>
<svg width="23px" height="32px" viewBox="0 0 23 32" version="1.1" xmlns="http://www.w3.org/2000/svg" xmlns:xlink="http://www.w3.org/1999/xlink">
    <!-- Generator: Sketch 43.2 (39069) - http://www.bohemiancoding.com/sketch -->
    <title>icon_pin_alt</title>
    <desc>Created with Sketch.</desc>
    <defs></defs>
    <g id="Page-1" stroke="none" stroke-width="1" fill="none" fill-rule="evenodd">
        <g id="Desktop-HD" transform="translate(-513.000000, -315.000000)" fill="#000000">
            <g id="icon_pin_alt" transform="translate(513.000000, 315.000000)">
                <path d="M11.212,16.424 C14.086,16.424 16.424,14.086 16.424,11.212 C16.424,8.338 14.086,6 11.212,6 C8.338,6 6,8.338 6,11.212 C6,14.086 8.338,16.424 11.212,16.424 L11.212,16.424 Z M11.212,8 C12.982,8 14.424,9.44 14.424,11.212 C14.424,12.984 12.984,14.424 11.212,14.424 C9.44,14.424 8,12.982 8,11.212 C8,9.442 9.44,8 11.212,8 L11.212,8 Z M10.484,31.458 C10.652,31.644 10.814,31.764 10.97,31.848 C10.972,31.85 10.976,31.85 10.978,31.852 C11.086,31.908 11.192,31.95 11.292,31.95 C11.392,31.95 11.498,31.908 11.606,31.852 C11.608,31.85 11.612,31.85 11.614,31.848 C11.77,31.764 11.932,31.644 12.1,31.458 C12.1,31.458 21.396,21.348 22.33,12.588 C22.386,12.136 22.424,11.678 22.424,11.212 C22.424,5.02 17.404,0 11.212,0 C5.02,0 0,5.02 0,11.212 C0,11.686 0.038,12.148 0.096,12.606 C1.054,21.362 10.484,31.458 10.484,31.458 L10.484,31.458 Z M11.212,2 C16.292,2 20.424,6.132 20.424,11.212 C20.424,11.55 20.4,11.91 20.342,12.376 C19.626,19.088 13.324,26.964 11.294,29.36 C9.212,26.96 2.82,19.104 2.08,12.36 C2.026,11.918 2,11.554 2,11.212 C2,6.132 6.132,2 11.212,2 L11.212,2 Z" id="Shape"></path>
            </g>
        </g>
    </g>
</svg>