<?xml version="1.0" encoding="UTF-8"?>
<svg width="12px" height="12px" viewBox="0 0 12 12" version="1.1" xmlns="http://www.w3.org/2000/svg" xmlns:xlink="http://www.w3.org/1999/xlink">
    <!-- Generator: Sketch 44.1 (41455) - http://www.bohemiancoding.com/sketch -->
    <title>icon_star_alt</title>
    <desc>Created with Sketch.</desc>
    <defs></defs>
    <g id="Page-1" stroke="none" stroke-width="1" fill="none" fill-rule="evenodd">
        <g id="Desktop-HD" transform="translate(-651.000000, -538.000000)" fill="#000000">
            <g id="Group-4" transform="translate(398.000000, 189.000000)">
                <g id="Group-7" transform="translate(214.000000, 349.000000)">
                    <g id="icon_star_alt" transform="translate(39.000000, 0.000000)">
                        <path d="M11.9491628,4.46709677 C11.8606628,4.18683871 11.6259128,3.98245161 11.3439128,3.93987097 L8.1114128,3.45522581 L6.6654128,0.432 C6.5386628,0.167225806 6.2784128,1.77635684e-15 5.9926628,1.77635684e-15 C5.7069128,1.77635684e-15 5.4466628,0.167225806 5.3199128,0.432 L3.8746628,3.45522581 L0.642162802,3.93987097 C0.359412802,3.98245161 0.124662802,4.18683871 0.036912802,4.46709677 C-0.051587198,4.74735484 0.021912802,5.05470968 0.226662802,5.26064516 L2.5659128,7.61419355 L2.0139128,10.9378065 C1.9659128,11.228129 2.0814128,11.5215484 2.3124128,11.6949677 C2.4421628,11.7932903 2.5966628,11.8428387 2.7526628,11.8428387 C2.8719128,11.8428387 2.9919128,11.8134194 3.1014128,11.7538065 L5.9926628,10.1845161 L8.8839128,11.7538065 C8.9934128,11.8134194 9.1134128,11.8428387 9.2326628,11.8428387 C9.3879128,11.8428387 9.5431628,11.7932903 9.6736628,11.6949677 C9.9046628,11.5215484 10.0201628,11.228129 9.9721628,10.9378065 L9.4201628,7.61419355 L11.7594128,5.26064516 C11.9634128,5.05548387 12.0369128,4.74735484 11.9491628,4.46709677 L11.9491628,4.46709677 Z M8.6139128,7.344 L9.2326628,11.0686452 L5.9926628,9.31045161 L2.7526628,11.0686452 L3.3714128,7.344 L0.750162802,4.70632258 L4.3726628,4.16283871 L5.9926628,0.774193548 L7.6126628,4.16283871 L11.2351628,4.70632258 L8.6139128,7.344 L8.6139128,7.344 Z" id="Shape"></path>
                    </g>
                </g>
            </g>
        </g>
    </g>
</svg>