<?xml version="1.0" encoding="UTF-8"?>
<svg width="12px" height="12px" viewBox="0 0 12 12" version="1.1" xmlns="http://www.w3.org/2000/svg" xmlns:xlink="http://www.w3.org/1999/xlink">
    <!-- Generator: Sketch 44.1 (41455) - http://www.bohemiancoding.com/sketch -->
    <title>icon_star-half_alt</title>
    <desc>Created with Sketch.</desc>
    <defs></defs>
    <g id="Page-1" stroke="none" stroke-width="1" fill="none" fill-rule="evenodd">
        <g id="Desktop-HD" transform="translate(-583.000000, -538.000000)" fill="#000000">
            <g id="icon_star-half_alt" transform="translate(583.000000, 538.000000)">
                <path d="M11.9565,4.62425806 C11.868,4.344 11.63325,4.1396129 11.3505,4.09780645 L8.118,3.61316129 L6.67275,0.58916129 C6.546,0.324387097 6.28575,0.15716129 6,0.15716129 C5.71425,0.15716129 5.454,0.324387097 5.32725,0.58916129 L3.882,3.6123871 L0.6495,4.09703226 C0.36675,4.1396129 0.132,4.344 0.04425,4.62425806 C-0.04425,4.90451613 0.02925,5.21187097 0.234,5.41780645 L2.57325,7.77135484 L2.02125,11.0949677 C1.97325,11.3852903 2.08875,11.6787097 2.31975,11.852129 C2.4495,11.9504516 2.604,12 2.76,12 C2.87925,12 2.99925,11.9705806 3.10875,11.9109677 L6,10.3416774 L8.89125,11.9109677 C9.00075,11.9705806 9.12075,12 9.24,12 C9.39525,12 9.5505,11.9504516 9.681,11.852129 C9.912,11.6787097 10.0275,11.3852903 9.9795,11.0949677 L9.4275,7.77135484 L11.76675,5.41780645 C11.9715,5.21187097 12.045,4.90451613 11.9565,4.62425806 L11.9565,4.62425806 Z M8.62125,7.50116129 L9.24,11.2258065 L6,9.4676129 L6,0.931354839 L7.62,4.32 L11.2425,4.86348387 L8.62125,7.50116129 L8.62125,7.50116129 Z" id="Shape"></path>
            </g>
        </g>
    </g>
</svg>